<?xml version="1.0" encoding="UTF-8"?>
<svg version="1.1" xmlns="http://www.w3.org/2000/svg" width="316" height="316">
<path d="M0 0 C104.28 0 208.56 0 316 0 C316 104.28 316 208.56 316 316 C211.72 316 107.44 316 0 316 C0 211.72 0 107.44 0 0 Z " fill="#9FADD5" transform="translate(0,0)"/>
<path d="M0 0 C52.8 0 105.6 0 160 0 C160 52.14 160 104.28 160 158 C107.2 158 54.4 158 0 158 C0 105.86 0 53.72 0 0 Z " fill="#FEFEFE" transform="translate(156,158)"/>
<path d="M0 0 C52.8 0 105.6 0 160 0 C160 52.14 160 104.28 160 158 C107.2 158 54.4 158 0 158 C0 105.86 0 53.72 0 0 Z " fill="#DC5F93" transform="translate(156,0)"/>
<path d="M0 0 C51.48 0 102.96 0 156 0 C156 52.14 156 104.28 156 158 C104.52 158 53.04 158 0 158 C0 105.86 0 53.72 0 0 Z " fill="#9CCBAA" transform="translate(0,0)"/>
<path d="M0 0 C7.92 0 15.84 0 24 0 C24 3.3 24 6.6 24 10 C29.28 10 34.56 10 40 10 C40 8.02 40 6.04 40 4 C41.32 4 42.64 4 44 4 C44 2.68 44 1.36 44 0 C51.92 0 59.84 0 68 0 C68 9.24 68 18.48 68 28 C64.7 28 61.4 28 58 28 C58 33.28 58 38.56 58 44 C61.3 44 64.6 44 68 44 C68 53.24 68 62.48 68 72 C58.76 72 49.52 72 40 72 C40 68.7 40 65.4 40 62 C34.72 62 29.44 62 24 62 C24 65.3 24 68.6 24 72 C14.76 72 5.52 72 -4 72 C-4 64.08 -4 56.16 -4 48 C-2.68 48 -1.36 48 0 48 C0 46.68 0 45.36 0 44 C1.98 44 3.96 44 6 44 C6 38.72 6 33.44 6 28 C2.7 28 -0.6 28 -4 28 C-4 20.08 -4 12.16 -4 4 C-2.68 4 -1.36 4 0 4 C0 2.68 0 1.36 0 0 Z " fill="#30353B" transform="translate(44,202)"/>
<path d="M0 0 C13.86 0 27.72 0 42 0 C42 20.79 42 41.58 42 63 C38.04 63 34.08 63 30 63 C30.05800781 64.01320313 30.11601562 65.02640625 30.17578125 66.0703125 C30.67521533 78.26014729 30.67521533 78.26014729 28.0625 81.875 C24.0570346 84.65430252 20.85588647 85.51294575 16 85 C12.52463658 83.35710093 10.62659456 82.20858408 8.84765625 78.77734375 C7.83447419 75.45765507 7.80500293 72.65235505 7.875 69.1875 C7.89304688 68.02605469 7.91109375 66.86460938 7.9296875 65.66796875 C7.95289063 64.78753906 7.97609375 63.90710938 8 63 C4.04 63 0.08 63 -4 63 C-4 43.53 -4 24.06 -4 4 C-2.68 4 -1.36 4 0 4 C0 2.68 0 1.36 0 0 Z " fill="#2F2F36" transform="translate(217,36)"/>
<path d="M0 0 C3.43403788 2.00011167 6.21175747 4.42351494 8 8 C8.80759062 13.49979437 8.69540945 17.75858343 5.3125 22.3125 C4.23658107 23.56646698 3.13316382 24.79751321 2 26 C1.28650391 26.79470703 1.28650391 26.79470703 0.55859375 27.60546875 C-0.75 29 -0.75 29 -3 31 C-3.66 31 -4.32 31 -5 31 C-2.69 33.64 -0.38 36.28 2 39 C0 43 0 43 -1.8125 44.0625 C-4 44 -4 44 -6.75 41.5625 C-7.4925 40.716875 -8.235 39.87125 -9 39 C-13.14471152 40.62351595 -15.86711377 43.64749339 -18.90234375 46.77734375 C-19.46192276 47.344496 -20.02150177 47.91164825 -20.59803772 48.49598694 C-22.98437292 50.91491854 -25.35871351 53.34550029 -27.73413086 55.77514648 C-29.47355474 57.55084317 -31.2190249 59.32043763 -32.96484375 61.08984375 C-33.49520737 61.63680405 -34.02557098 62.18376434 -34.57200623 62.74729919 C-41.63846316 69.90578975 -41.63846316 69.90578975 -46.9375 70.1171875 C-47.948125 70.03726563 -48.95875 69.95734375 -50 69.875 C-54.14304256 69.65583753 -54.14304256 69.65583753 -57.890625 71.1015625 C-59.41810905 72.59841019 -59.41810905 72.59841019 -61 75 C-63.62187494 73.95125002 -64.79371361 73.35068687 -66.25 70.875 C-66.4975 70.25625 -66.745 69.6375 -67 69 C-66.175 68.4225 -65.35 67.845 -64.5 67.25 C-62.38264304 65.19129559 -62.01244287 64.27976394 -61.87890625 61.27734375 C-61.99892122 59.25751726 -62.17389499 57.24001677 -62.41015625 55.23046875 C-61.19166691 45.63341459 -49.72135377 37.49831486 -43.125 31 C-41.94745054 29.83250121 -40.77036324 28.66453607 -39.59375 27.49609375 C-36.73446733 24.65865728 -33.8690022 21.82760706 -31 19 C-31.30679688 18.38640625 -31.61359375 17.7728125 -31.9296875 17.140625 C-32.953125 15.09375 -33.9765625 13.046875 -35 11 C-33.35 9.68 -31.7 8.36 -30 7 C-27.69 8.98 -25.38 10.96 -23 13 C-22.34 11.68 -21.68 10.36 -21 9 C-18.90625 6.89453125 -18.90625 6.89453125 -16.5 4.8125 C-15.7059375 4.11769531 -14.911875 3.42289063 -14.09375 2.70703125 C-9.80000185 -0.79365521 -5.36866394 -0.87340951 0 0 Z " fill="#2E3337" transform="translate(106,40)"/>
<path d="M0 0 C4.99113981 1.46407253 8.59795079 5.95007585 12.20004272 9.50894165 C13.16979897 10.45358431 14.13996627 11.39780514 15.11051941 12.34162903 C17.14966457 14.33432132 19.17353303 16.34125126 21.18954468 18.35733032 C23.21814289 20.38208558 25.2686719 22.37859734 27.3477478 24.35147095 C43.12440578 39.33386642 55.09995113 54.79881406 60.09457397 76.6144104 C58.08803877 75.96767945 56.09046612 75.29327635 54.09457397 74.6144104 C53.28536499 74.34127014 52.47615601 74.06812988 51.64242554 73.78671265 C32.55721773 67.07859989 20.1638257 56.63511388 6.57595825 42.29025269 C4.56869782 40.18887736 2.52677619 38.12294717 0.48321533 36.05694771 C-1.97246649 33.57109678 -4.40858189 31.06644453 -6.84292603 28.5597229 C-7.74365845 27.63571686 -8.64439087 26.71171082 -9.57241821 25.75970459 C-10.39258423 24.89465302 -11.21275024 24.02960144 -12.05776978 23.13833618 C-12.77956421 22.38319733 -13.50135864 21.62805847 -14.24502563 20.85003662 C-16.09569943 18.35821905 -16.66798756 16.69370055 -16.90542603 13.6144104 C-15.64761353 11.5519104 -15.64761353 11.5519104 -13.78042603 9.6144104 C-13.1281604 8.9337854 -12.47589478 8.2531604 -11.80386353 7.5519104 C-10.86413696 6.5928479 -10.86413696 6.5928479 -9.90542603 5.6144104 C-9.08042603 4.6244104 -8.25542603 3.6344104 -7.40542603 2.6144104 C-4.8166872 0.54341934 -3.31507799 -0.11721032 0 0 Z " fill="#31353A" transform="translate(215.90542602539063,201.38558959960938)"/>
<path d="M0 0 C5.28 0 10.56 0 16 0 C16 3.3 16 6.6 16 10 C19.3 10 22.6 10 26 10 C26 15.28 26 20.56 26 26 C24.02 26 22.04 26 20 26 C20 27.32 20 28.64 20 30 C18.68 30 17.36 30 16 30 C16 31.98 16 33.96 16 36 C10.72 36 5.44 36 0 36 C0 32.7 0 29.4 0 26 C-3.3 26 -6.6 26 -10 26 C-10 20.72 -10 15.44 -10 10 C-6.7 10 -3.4 10 0 10 C0 6.7 0 3.4 0 0 Z " fill="#9FADD5" transform="translate(68,220)"/>
<path d="M0 0 C3.76488042 1.72154788 6.15063897 3.99234114 9 7 C7.3439329 11.21631611 4.23753255 14.10368238 1.109375 17.26171875 C0.52714172 17.8529805 -0.05509155 18.44424225 -0.65496826 19.05342102 C-1.88621767 20.29915075 -3.12027457 21.54211103 -4.35693359 22.7824707 C-6.24180888 24.67925711 -8.10721567 26.59388779 -9.97265625 28.50976562 C-11.17332435 29.71989688 -12.37511125 30.92891932 -13.578125 32.13671875 C-14.13147522 32.70960129 -14.68482544 33.28248383 -15.25494385 33.87272644 C-18.64500743 37.22418079 -21.00511792 38.9348378 -26 39 C-28.4375 37.4375 -28.4375 37.4375 -30 35 C-30.00037064 30.87185877 -28.94264686 28.61341323 -26.22436523 25.65673828 C-25.01520011 24.44835976 -23.7924038 23.2535165 -22.55859375 22.0703125 C-21.91632339 21.43511688 -21.27405304 20.79992126 -20.61231995 20.14547729 C-18.56551426 18.12657927 -16.50199079 16.1257942 -14.4375 14.125 C-13.04378144 12.7563687 -11.65118948 11.38658915 -10.25976562 10.015625 C-6.85275579 6.66363668 -3.43064908 3.32778341 0 0 Z " fill="#F7F8F8" transform="translate(81,64)"/>
<path d="M0 0 C2.64 0 5.28 0 8 0 C8 3.3 8 6.6 8 10 C10.64 10 13.28 10 16 10 C16 6.7 16 3.4 16 0 C20.62 0 25.24 0 30 0 C30 5.94 30 11.88 30 18 C20.1 18 10.2 18 0 18 C0 12.06 0 6.12 0 0 Z " fill="#FDF9FB" transform="translate(221,44)"/>
<path d="M0 0 C4.10108886 1.62156024 6.83148167 4.5767703 9.859375 7.6640625 C10.40861633 8.21613373 10.95785767 8.76820496 11.52374268 9.33700562 C13.27059293 11.09501815 15.01034601 12.8598689 16.75 14.625 C17.93573591 15.8207708 19.1219288 17.01608865 20.30859375 18.2109375 C23.21105085 21.13540253 26.1071641 24.06601874 29 27 C27.02 29.31 25.04 31.62 23 34 C16.63409696 28.75541414 10.86429388 22.97902678 5.0625 17.125 C4.08291763 16.14039081 3.10310163 15.156014 2.12304688 14.171875 C-0.25360252 11.78351797 -2.62787356 9.39284788 -5 7 C-3.64062915 4.1394109 -2.35479531 2.14072301 0 0 Z " fill="#FBFCFC" transform="translate(222,219)"/>
<path d="M0 0 C9.9 0 19.8 0 30 0 C30 3.96 30 7.92 30 12 C20.1 12 10.2 12 0 12 C0 8.04 0 4.08 0 0 Z " fill="#DD6094" transform="translate(221,79)"/>
<path d="M0 0 C0.33 0 0.66 0 1 0 C1 5.94 1 11.88 1 18 C10.9 18 20.8 18 31 18 C31 12.06 31 6.12 31 0 C31.33 0 31.66 0 32 0 C32.02886338 4.47915328 32.04675187 8.95828291 32.0625 13.4375 C32.07087891 14.71689453 32.07925781 15.99628906 32.08789062 17.31445312 C32.09111328 18.52939453 32.09433594 19.74433594 32.09765625 20.99609375 C32.10289307 22.12200928 32.10812988 23.2479248 32.11352539 24.40795898 C32 27 32 27 31 28 C28.79349344 28.10012401 26.58377614 28.1308118 24.375 28.1328125 C23.71290527 28.13376923 23.05081055 28.13472595 22.36865234 28.13571167 C20.96647039 28.13639326 19.5642853 28.13454042 18.16210938 28.13037109 C16.00904287 28.12502246 13.85618498 28.1303167 11.703125 28.13671875 C10.34374954 28.13605796 8.9843742 28.13477679 7.625 28.1328125 C6.37976563 28.13168457 5.13453125 28.13055664 3.8515625 28.12939453 C1 28 1 28 0 27 C-0.08758003 25.00035018 -0.10696576 22.9976389 -0.09765625 20.99609375 C-0.09443359 19.78115234 -0.09121094 18.56621094 -0.08789062 17.31445312 C-0.07951172 16.03505859 -0.07113281 14.75566406 -0.0625 13.4375 C-0.05798828 12.15423828 -0.05347656 10.87097656 -0.04882812 9.54882812 C-0.03699545 6.36583978 -0.02051068 3.18294238 0 0 Z " fill="#C9618D" transform="translate(220,44)"/>
<path d="M0 0 C3.76488042 1.72154788 6.15063897 3.99234114 9 7 C6.621431 12.10185814 3.95541458 16.13717452 -1 19 C-6.60711038 19.99383513 -12.35909631 19.46152848 -18 19 C-12.44964797 12.21623641 -6.23557973 6.14477032 0 0 Z " fill="#99C7A7" transform="translate(81,64)"/>
<path d="M0 0 C3.25390625 1.02734375 3.25390625 1.02734375 5.25390625 4.02734375 C5.17216448 8.00544306 4.51763934 9.70725743 1.96875 12.80078125 C1.05222656 13.65929688 0.13570312 14.5178125 -0.80859375 15.40234375 C-2.18724609 16.71332031 -2.18724609 16.71332031 -3.59375 18.05078125 C-4.30402344 18.70304687 -5.01429687 19.3553125 -5.74609375 20.02734375 C-6.87504251 19.09460266 -7.99910251 18.15594253 -9.12109375 17.21484375 C-9.74757813 16.69277344 -10.3740625 16.17070313 -11.01953125 15.6328125 C-12.74609375 14.02734375 -12.74609375 14.02734375 -14.74609375 11.02734375 C-13.08195525 9.14653623 -11.39513379 7.30167299 -9.68359375 5.46484375 C-9.21759766 4.93181641 -8.75160156 4.39878906 -8.27148438 3.84960938 C-5.43383388 0.85752892 -4.18403734 0.03054042 0 0 Z " fill="#98C5A6" transform="translate(101.74609375,46.97265625)"/>
<path d="M0 0 C3.96 0 7.92 0 12 0 C12 3.96 12 7.92 12 12 C8.04 12 4.08 12 0 12 C0 8.04 0 4.08 0 0 Z " fill="#BBC4E1" transform="translate(92,254)"/>
<path d="M0 0 C3.96 0 7.92 0 12 0 C12 3.96 12 7.92 12 12 C8.04 12 4.08 12 0 12 C0 8.04 0 4.08 0 0 Z " fill="#BBC4E1" transform="translate(48,254)"/>
<path d="M0 0 C3.96 0 7.92 0 12 0 C12 3.96 12 7.92 12 12 C8.04 12 4.08 12 0 12 C0 8.04 0 4.08 0 0 Z " fill="#BBC4E1" transform="translate(92,210)"/>
<path d="M0 0 C3.96 0 7.92 0 12 0 C12 3.96 12 7.92 12 12 C8.04 12 4.08 12 0 12 C0 8.04 0 4.08 0 0 Z " fill="#BBC4E1" transform="translate(48,210)"/>
<path d="M0 0 C2.31 0 4.62 0 7 0 C7.02694851 1.95825873 7.04637218 3.91662226 7.0625 5.875 C7.07410156 6.96554688 7.08570313 8.05609375 7.09765625 9.1796875 C7 12 7 12 6 14 C4.33388095 14.042721 2.66617115 14.04063832 1 14 C0 13 0 13 -0.09765625 10.05859375 C-0.08605469 8.86363281 -0.07445312 7.66867188 -0.0625 6.4375 C-0.05347656 5.23996094 -0.04445312 4.04242188 -0.03515625 2.80859375 C-0.02355469 1.88175781 -0.01195312 0.95492187 0 0 Z " fill="#DB5F93" transform="translate(233,99)"/>
<path d="M0 0 C1.32 0.66 2.64 1.32 4 2 C2.55922954 5.36179774 0.75249979 7.59156268 -2 10 C-2.66 10 -3.32 10 -4 10 C-4.66 8.68 -5.32 7.36 -6 6 C-4.02 4.02 -2.04 2.04 0 0 Z " fill="#F3F4F4" transform="translate(214,210)"/>
<path d="M0 0 C0.66 0 1.32 0 2 0 C5 5.75 5 5.75 5 8 C-0.75 6.125 -0.75 6.125 -3 5 C-1.125 1.125 -1.125 1.125 0 0 Z " fill="#EFEFF0" transform="translate(256,255)"/>
</svg>
